<?xml version="1.0" encoding="utf-8"?>
<!-- Generator: Adobe Illustrator 22.0.1, SVG Export Plug-In . SVG Version: 6.00 Build 0)  -->
<svg version="1.1" id="Layer_1" xmlns="http://www.w3.org/2000/svg" xmlns:xlink="http://www.w3.org/1999/xlink" x="0px" y="0px"
	 viewBox="0 0 366 425" style="enable-background:new 0 0 366 425;" xml:space="preserve">
<style type="text/css">
	.st0{fill:#FFFFFF;}
</style>
<g>
	<path class="st0" d="M258.5,305.7h-21.1V281c31.5-18.3,52.7-52.3,52.7-91.2v-63.3c0,0,0,0,0,0c0,0,0,0,0,0
		c0-25.4-18.1-46.7-42.2-51.6V42.2c0-5.8-4.7-10.5-10.5-10.5h-63.3c-52.3,0-94.9,42.6-94.9,94.9v31.9c0,0,0,0,0,0v31.9
		c0,0.1,0,0.1,0,0.2c0.2,38.6,21.4,72.4,52.7,90.5v24.7h-21.1c-34.9,0-63.3,28.4-63.3,63.3v15.2c0,5.8,4.7,10.5,10.5,10.5
		c5.8,0,10.5-4.7,10.5-10.5V369c0-23.3,18.9-42.2,42.2-42.2H140l18.9,9.4c0.1,0,0.1,0,0.2,0.1c0.6,0.3,1.3,0.5,2,0.7
		c0.1,0,0.3,0.1,0.4,0.1c0.7,0.1,1.4,0.2,2.1,0.2c0,0,0,0,0,0c0,0,0,0,0,0c0,0,0,0,0,0c0,0,0,0,0,0c0.7,0,1.4-0.1,2.1-0.2
		c0.1,0,0.3,0,0.4-0.1c0.7-0.2,1.4-0.4,2.1-0.8c0,0,0.1,0,0.1,0l16.4-8.2l16.4,8.2c0.1,0,0.1,0,0.2,0.1c0.6,0.3,1.3,0.5,2,0.7
		c0.1,0,0.3,0.1,0.4,0.1c0.7,0.1,1.4,0.2,2.1,0.2c0,0,0,0,0,0c0,0,0,0,0,0c0,0,0,0,0,0c0,0,0,0,0,0c0.7,0,1.4-0.1,2.1-0.2
		c0.1,0,0.3,0,0.4-0.1c0.7-0.2,1.4-0.4,2.1-0.8c0,0,0.1,0,0.1,0l18.8-9.4h29.2c23.3,0,42.2,18.9,42.2,42.2v15.2
		c0,5.8,4.7,10.5,10.5,10.5c5.8,0,10.5-4.7,10.5-10.5V369C321.7,334.1,293.4,305.7,258.5,305.7z M174.2,52.7h52.7v31.6
		c0,5.8,4.7,10.5,10.5,10.5c17.4,0,31.6,14.2,31.6,31.6c0,0,0,0,0,0c0,0,0,0,0,0v12.1l-15.2-10.3c-0.1-0.1-0.3-0.1-0.4-0.2
		c-0.2-0.1-0.5-0.3-0.7-0.4c-0.4-0.2-0.8-0.4-1.2-0.5c-0.2-0.1-0.4-0.1-0.5-0.2c-0.5-0.1-1-0.3-1.4-0.3c-0.2,0-0.3,0-0.5-0.1
		c-0.5,0-1-0.1-1.5-0.1c-0.2,0-0.4,0-0.7,0.1c-0.4,0-0.9,0.1-1.3,0.2c-0.3,0.1-0.5,0.1-0.8,0.2c-0.4,0.1-0.8,0.3-1.2,0.4
		c-0.1,0-0.2,0.1-0.3,0.1c-0.2,0.1-19.8,9.5-53.3,9.5c-34.5,0-64.9-9.9-65.2-10c-0.2-0.1-0.4-0.1-0.7-0.1c-0.3-0.1-0.7-0.2-1-0.2
		c-0.4-0.1-0.8-0.1-1.2-0.1c-0.3,0-0.5,0-0.8,0c-0.4,0-0.9,0.1-1.3,0.1c-0.2,0-0.5,0.1-0.7,0.1c-0.4,0.1-0.9,0.2-1.3,0.4
		c-0.2,0.1-0.5,0.2-0.7,0.3c-0.4,0.2-0.8,0.4-1.2,0.7c-0.1,0.1-0.3,0.1-0.4,0.2l-15.2,10.3v-12.1C100.4,85.8,133.5,52.7,174.2,52.7z
		 M100.4,189.8V164l22.8-15.4c10.7,3.1,37,9.5,66.8,9.5c27.9,0,47.5-5.8,56.8-9.2L269,164v25.8c0,46.5-37.8,84.3-84.3,84.3
		C138.2,274.1,100.4,236.2,100.4,189.8z M184.7,295.2c11,0,21.6-1.7,31.6-4.9v19.4l-10.5,5.3l-16.4-8.2c-0.2-0.1-0.4-0.2-0.7-0.2
		c-0.4-0.1-0.7-0.3-1.1-0.4c-0.3-0.1-0.6-0.1-0.9-0.2c-0.4-0.1-0.8-0.2-1.2-0.2c-0.3,0-0.5,0-0.8,0c-0.4,0-0.8,0-1.3,0
		c-0.2,0-0.5,0.1-0.7,0.1c-0.4,0.1-0.9,0.2-1.3,0.3c-0.2,0.1-0.4,0.2-0.6,0.2c-0.3,0.1-0.6,0.2-1,0.4l-16.4,8.2l-10.5-5.3v-19.4
		C163.1,293.5,173.7,295.2,184.7,295.2z"/>
</g>
</svg>
