<?xml version="1.0" encoding="utf-8"?>
<!-- Generator: Adobe Illustrator 22.0.1, SVG Export Plug-In . SVG Version: 6.00 Build 0)  -->
<svg version="1.1" id="Layer_1" xmlns="http://www.w3.org/2000/svg" xmlns:xlink="http://www.w3.org/1999/xlink" x="0px" y="0px"
	 viewBox="0 0 1000 204.6" style="enable-background:new 0 0 1000 204.6;" xml:space="preserve">
<style type="text/css">
	.st0{fill:#FFFFFF;}
	.st1{fill:#C7A462;}
	.st2{fill:#C6A461;}
</style>
<g>
	<g>
		<path class="st0" d="M585.5,82.4c3,1.8,7.3,3.3,11.8,3.3c6.7,0,10.7-3.5,10.7-8.7c0-4.7-2.7-7.5-9.6-10.1
			c-8.3-3-13.5-7.3-13.5-14.5c0-7.9,6.6-13.8,16.5-13.8c5.2,0,9,1.2,11.3,2.5l-1.8,5.4c-1.6-0.9-5.1-2.4-9.7-2.4
			c-6.9,0-9.6,4.2-9.6,7.7c0,4.7,3.1,7.1,10.1,9.9c8.6,3.3,13,7.5,13,15c0,7.9-5.8,14.7-17.9,14.7c-4.9,0-10.3-1.4-13-3.3
			L585.5,82.4z"/>
	</g>
	<g>
		<path class="st0" d="M623.8,40c3.2-0.5,7.4-1,12.6-1c6.5,0,11.3,1.5,14.3,4.3c2.8,2.4,4.5,6.2,4.5,10.7c0,4.6-1.3,8.2-4,10.9
			c-3.5,3.7-9.1,5.6-15.6,5.6c-2,0-3.8-0.1-5.3-0.4v20.4h-6.6L623.8,40L623.8,40z M630.3,64.6c1.4,0.4,3.3,0.5,5.5,0.5
			c7.9,0,12.8-3.8,12.8-10.9c0-6.7-4.7-10-12-10c-2.9,0-5.1,0.2-6.2,0.5L630.3,64.6L630.3,64.6z"/>
	</g>
	<g>
		<path class="st0" d="M707.6,64.4c0,17.6-10.7,26.9-23.7,26.9c-13.5,0-23-10.4-23-25.9c0-16.2,10.1-26.8,23.7-26.8
			C698.6,38.5,707.6,49.2,707.6,64.4z M668,65.1c0,10.9,5.9,20.7,16.3,20.7s16.4-9.6,16.4-21.2c0-10.1-5.3-20.8-16.3-20.8
			C673.4,43.9,668,53.9,668,65.1z"/>
	</g>
	<g>
		<path class="st0" d="M716.2,40c3.3-0.7,8.1-1.1,12.6-1.1c7,0,11.6,1.3,14.7,4.2c2.6,2.3,4,5.7,4,9.7c0,6.7-4.3,11.2-9.6,13v0.2
			c4,1.3,6.3,5,7.5,10.3c1.6,7.1,2.9,12,4,14h-6.9c-0.9-1.4-2-5.8-3.4-12.2c-1.5-7-4.3-9.7-10.2-9.9h-6.2v22.1h-6.6L716.2,40
			L716.2,40z M722.8,63.3h6.7c7,0,11.5-3.8,11.5-9.7c0-6.6-4.7-9.4-11.8-9.6c-3.2,0-5.5,0.3-6.5,0.6L722.8,63.3L722.8,63.3z"/>
	</g>
	<g>
		<path class="st0" d="M767.3,44.9h-15.5v-5.6h37.8v5.6H774v45.4h-6.7L767.3,44.9L767.3,44.9z"/>
	</g>
	<g>
		<path class="st0" d="M793.9,82.4c3,1.8,7.3,3.3,11.8,3.3c6.7,0,10.7-3.5,10.7-8.7c0-4.7-2.7-7.5-9.6-10.1
			c-8.3-3-13.5-7.3-13.5-14.5c0-7.9,6.6-13.8,16.5-13.8c5.2,0,9,1.2,11.3,2.5l-1.8,5.4c-1.6-0.9-5.1-2.4-9.7-2.4
			c-6.9,0-9.6,4.2-9.6,7.7c0,4.7,3.1,7.1,10.1,9.9c8.6,3.3,13,7.5,13,15c0,7.9-5.8,14.7-17.9,14.7c-4.9,0-10.3-1.4-13-3.3
			L793.9,82.4z"/>
	</g>
	<g>
		<path class="st0" d="M582.8,99.2c3.9-0.8,10-1.4,16.2-1.4c8.9,0,14.6,1.6,18.9,5c3.5,2.6,5.7,6.7,5.7,12.1
			c0,6.6-4.4,12.4-11.6,15.1v0.2c6.5,1.6,14.2,7,14.2,17.2c0,5.9-2.3,10.4-5.8,13.8c-4.8,4.4-12.5,6.5-23.7,6.5
			c-6.1,0-10.8-0.4-13.8-0.9L582.8,99.2L582.8,99.2z M591.7,127.3h8.1c9.4,0,14.9-4.9,14.9-11.5c0-8.1-6.1-11.2-15.1-11.2
			c-4.1,0-6.5,0.3-7.9,0.6L591.7,127.3L591.7,127.3z M591.7,160.3c1.7,0.3,4.3,0.4,7.4,0.4c9.1,0,17.6-3.3,17.6-13.3
			c0-9.4-8.1-13.3-17.7-13.3h-7.4V160.3z"/>
	</g>
	<g>
		<path class="st0" d="M696.8,131.9c0,23.7-14.4,36.1-31.9,36.1c-18.1,0-30.9-14-30.9-34.9c0-21.8,13.5-36.1,31.9-36.1
			C684.7,97.2,696.8,111.5,696.8,131.9z M643.5,133.1c0,14.7,7.9,27.9,21.9,27.9c14,0,22-13,22-28.6c0-13.7-7.2-27.9-21.9-27.9
			C650.9,104.4,643.5,118,643.5,133.1z"/>
	</g>
	<g>
		<path class="st0" d="M767,131.9c0,23.7-14.4,36.1-31.9,36.1c-18.1,0-30.9-14-30.9-34.9c0-21.8,13.5-36.1,31.9-36.1
			C754.9,97.2,767,111.5,767,131.9z M713.7,133.1c0,14.7,7.9,27.9,21.9,27.9c14,0,22-13,22-28.6c0-13.7-7.2-27.9-21.9-27.9
			C721,104.4,713.7,118,713.7,133.1z"/>
	</g>
	<g>
		<path class="st0" d="M778.6,98.3h8.9v33.1h0.3c1.8-2.6,3.7-5.1,5.4-7.4l21-25.8h11l-24.9,29.1l26.8,39.6h-10.5l-22.6-33.7
			l-6.5,7.5v26.2h-8.9L778.6,98.3L778.6,98.3z"/>
	</g>
	<path class="st1" d="M349.3,166.9L304.5,38.5h19.2l21.4,63.2c5.9,17.3,11,33,14.7,48h0.4c3.9-14.9,9.6-31,15.7-47.8l23.2-63.4h19
		L369,166.9H349.3z"/>
	<path class="st1" d="M453.2,38.5v128.4h-17.7V38.5H453.2z"/>
	<path class="st1" d="M481.7,40.1c8.6-1.3,19.8-2.5,34.1-2.5c17.6,0,30.4,3.8,38.6,10.6c7.5,6.1,12,15.5,12,26.9
		c0,11.6-3.7,20.8-10.6,27.4c-9.4,9.4-24.7,14.1-42,14.1c-5.3,0-10.2-0.2-14.2-1.1v51.4h-17.7L481.7,40.1L481.7,40.1z M499.5,102
		c3.9,0.9,8.8,1.3,14.7,1.3c21.4,0,34.4-9.7,34.4-27.4c0-16.9-12.8-25.2-32.5-25.2c-7.7,0-13.7,0.6-16.7,1.3L499.5,102L499.5,102z"
		/>
	<g>
		<g>
			<polygon class="st0" points="225.1,148 164.9,100.5 164.9,119.5 224.8,166.8 286.3,118.7 286.3,99.6 			"/>
		</g>
		<rect x="164.9" y="80.1" class="st2" width="121.1" height="14"/>
		<path class="st2" d="M274.8,39.9c0,0.3,0,0.6,0,0.9c0,12.3-10,22.3-22.3,22.3c-12.3,0-22.3-10-22.3-22.3c0-0.4,0-0.6,0-0.9h-10.9
			c0,0.3,0,0.6,0,0.9c0,12.3-10,22.3-22.3,22.3s-22.2-9.9-22.2-22.3c0-0.4,0-0.6,0-0.9h-9.2v33.8h119.8V39.9H274.8z"/>
		<g>
			<polygon class="st0" points="255.9,98.6 225.5,122.9 194.2,98.6 172.3,98.6 224.8,140 277.7,98.6 			"/>
		</g>
	</g>
</g>
</svg>
