<?xml version="1.0" encoding="utf-8"?>
<!-- Generator: Adobe Illustrator 22.0.1, SVG Export Plug-In . SVG Version: 6.00 Build 0)  -->
<svg version="1.1" id="Layer_1" xmlns="http://www.w3.org/2000/svg" xmlns:xlink="http://www.w3.org/1999/xlink" x="0px" y="0px"
	 viewBox="0 0 1000 204.6" style="enable-background:new 0 0 1000 204.6;" xml:space="preserve">
<style type="text/css">
	.st0{fill:#FFFFFF;}
	.st1{fill:url(#SVGID_1_);}
</style>
<g>
	<g>
		<path class="st0" d="M342,90.4l-22.6,39.8h-12l-22.6-39.8h13.1l15.9,28.4L330,90.4H342z"/>
		<path class="st0" d="M345.6,90.4h12.1v39.8h-12.1V90.4z"/>
		<path class="st0" d="M414.7,104.8c0,8.9-8.7,14.4-22.7,14.4h-10.5v11h-12.1V90.4H392C406,90.4,414.7,95.9,414.7,104.8z
			 M402.5,104.8c0-4.4-3.7-6.9-11.1-6.9h-9.9v13.8h9.9C398.7,111.7,402.5,109.1,402.5,104.8z"/>
		<path class="st0" d="M419.2,126.2l4.1-6.9c4.4,2.4,11,4.2,17.3,4.2c7.2,0,10.1-1.8,10.1-4.3c0-7.4-30.4-2.3-30.4-17.1
			c0-6.8,7.2-12.4,22.1-12.4c6.6,0,13.3,1.2,18.2,3.5l-3.7,7c-4.9-2.1-9.9-3.1-14.5-3.1c-7.2,0-9.9,2-9.9,4.5
			c0,7.3,30.4,2.3,30.4,16.9c0,6.7-7.3,12.3-22.2,12.3C432.2,130.8,423.8,129,419.2,126.2z"/>
		<path class="st0" d="M515.6,104.8c0,8.9-8.7,14.4-22.7,14.4h-10.5v11h-12.1V90.4h22.6C506.9,90.4,515.6,95.9,515.6,104.8z
			 M503.4,104.8c0-4.4-3.7-6.9-11.1-6.9h-9.9v13.8h9.9C499.6,111.7,503.4,109.1,503.4,104.8z"/>
		<path class="st0" d="M520.9,110.3c0-11.8,12.1-20.6,28.6-20.6c16.4,0,28.6,8.7,28.6,20.6c0,11.9-12.2,20.6-28.6,20.6
			C533,130.8,520.9,122.1,520.9,110.3z M565.9,110.3c0-7.6-7-12.7-16.4-12.7c-9.3,0-16.4,5.2-16.4,12.7s7,12.7,16.4,12.7
			C558.9,123,565.9,117.8,565.9,110.3z"/>
		<path class="st0" d="M619.9,130.2l-10.1-11.1h-0.6h-10.5v11.1h-12.1V90.4h22.6c14,0,22.7,5.5,22.7,14.4c0,6-4,10.3-10.8,12.6
			l11.7,12.8H619.9z M608.5,97.9h-9.9v13.9h9.9c7.4,0,11.1-2.6,11.1-6.9C619.6,100.4,615.9,97.9,608.5,97.9z"/>
		<path class="st0" d="M650.8,97.9h-16.7v-7.5h45.6v7.5h-16.7v32.3h-12.1V97.9z"/>
		<path class="st0" d="M680.9,126.2l4.1-6.9c4.4,2.4,11,4.2,17.3,4.2c7.2,0,10.1-1.8,10.1-4.3c0-7.4-30.4-2.3-30.4-17.1
			c0-6.8,7.2-12.4,22.1-12.4c6.6,0,13.3,1.2,18.2,3.5l-3.7,7c-4.9-2.1-9.9-3.1-14.5-3.1c-7.2,0-9.9,2-9.9,4.5
			c0,7.3,30.4,2.3,30.4,16.9c0,6.7-7.3,12.3-22.2,12.3C693.9,130.8,685.6,129,680.9,126.2z"/>
		<path class="st0" d="M780,119.3c0,6.9-7.2,10.9-20.9,10.9H732V90.4h25.6c13.1,0,19.8,4.2,19.8,10.3c0,4-2.7,7.1-7,8.8
			C776.2,110.9,780,114.3,780,119.3z M744,97.3v9.4h12c5.9,0,9.1-1.6,9.1-4.7c0-3.1-3.2-4.7-9.1-4.7H744z M767.8,118.3
			c0-3.4-3.4-4.9-9.6-4.9H744v9.8h14.1C764.4,123.2,767.8,121.7,767.8,118.3z"/>
		<path class="st0" d="M785.1,110.3c0-11.8,12.1-20.6,28.6-20.6c16.4,0,28.6,8.7,28.6,20.6c0,11.9-12.2,20.6-28.6,20.6
			C797.2,130.8,785.1,122.1,785.1,110.3z M830.1,110.3c0-7.6-7-12.7-16.4-12.7c-9.3,0-16.4,5.2-16.4,12.7s7,12.7,16.4,12.7
			C823.1,123,830.1,117.8,830.1,110.3z"/>
		<path class="st0" d="M847.4,110.3c0-11.8,12.1-20.6,28.6-20.6c16.4,0,28.6,8.7,28.6,20.6c0,11.9-12.2,20.6-28.6,20.6
			C859.6,130.8,847.4,122.1,847.4,110.3z M892.4,110.3c0-7.6-7-12.7-16.4-12.7c-9.3,0-16.4,5.2-16.4,12.7s7,12.7,16.4,12.7
			C885.4,123,892.4,117.8,892.4,110.3z"/>
		<path class="st0" d="M932.1,114.5l-7,5.6v10.1h-12V90.4h12V109l23.2-18.6h13.5l-21.7,17.7l22.9,22.1h-14.1L932.1,114.5z"/>
	</g>
	<linearGradient id="SVGID_1_" gradientUnits="userSpaceOnUse" x1="35" y1="106.6275" x2="250.847" y2="106.6275">
		<stop  offset="0" style="stop-color:#462522"/>
		<stop  offset="0.2205" style="stop-color:#CA9A50"/>
		<stop  offset="0.4286" style="stop-color:#F6E27B"/>
		<stop  offset="0.5" style="stop-color:#F6F2C1"/>
		<stop  offset="0.565" style="stop-color:#F6E27B"/>
		<stop  offset="0.7829" style="stop-color:#CA9A50"/>
		<stop  offset="1" style="stop-color:#462522"/>
	</linearGradient>
	<path class="st1" d="M180.5,48.9L204.9,28c9.4,9.5,19.3,18.5,28.8,28c6,6,23.7,18.5,14.7,28.4c-16,16.3-31.9,32.6-47.9,48.9
		c-9.6,9.9-19.3,19.7-28.9,29.6c-5,5.1-9.9,10.3-15,15.3c-3.3,3.2-7.9,7.1-12.8,7.1h-1.5c-5.4,0-12-6.1-12-6.1s-93-93.2-93-93.2
		c-5.8-6.4,1.1-15.6,5.8-20.1C55.9,53.5,68.2,40.6,80.8,28l18.9,21.9L78.9,71.1c-7.1,7.1-1.7,14-1.7,14l57.1,55.4
		c6.6,7.5,13.9,2.3,13.9,2.3l56.1-57.2c0,0,7.3-7.3-1.2-14.6L180.5,48.9"/>
</g>
</svg>
