<?xml version="1.0" encoding="utf-8"?>
<!-- Generator: Adobe Illustrator 22.0.1, SVG Export Plug-In . SVG Version: 6.00 Build 0)  -->
<svg version="1.1" id="Layer_1" xmlns="http://www.w3.org/2000/svg" xmlns:xlink="http://www.w3.org/1999/xlink" x="0px" y="0px"
	 viewBox="0 0 340 321.5" style="enable-background:new 0 0 340 321.5;" xml:space="preserve">
<g>
	<g>
		<path d="M230.6,64.7c-17.6,0-32,14.4-32,32c0,17.6,14.4,32,32,32c17.6,0,32-14.4,32-32C262.6,79.2,248.2,64.7,230.6,64.7
			L230.6,64.7z M230.6,116c-10.6,0-19.2-8.6-19.2-19.2c0-10.6,8.6-19.2,19.2-19.2c10.6,0,19.2,8.6,19.2,19.2
			C249.8,107.3,241.2,116,230.6,116L230.6,116z M230.6,116"/>
		<path d="M269,26.7h-86.4c-8.6,0-16.6,3.2-22.4,9.3L31.9,163.6c-12.5,12.5-12.5,32.6,0,45.1l85.8,85.4c6.1,6.1,14.1,9.3,22.7,9.3
			c8.6,0,16.6-3.2,22.7-9.3l128.3-128.3c6.1-5.8,9.6-13.8,9.6-22.1V58.7C301,41.1,286.6,26.7,269,26.7L269,26.7z M288.2,143.8
			c0,4.8-1.9,9.6-5.8,12.8L153.8,285.2c-3.5,3.5-8.3,5.4-13.4,5.4c-5.1,0-9.9-1.9-13.4-5.4l-86.1-85.4c-7.4-7.4-7.4-19.5,0-27.2
			L169.2,44.9c3.5-3.5,8.3-5.4,13.4-5.4H269c10.6,0,19.2,8.6,19.2,19.2V143.8z M288.2,143.8"/>
	</g>
</g>
</svg>
